BodoniModa-Italic.ufo
<glyph name="three" format="2">
  <advance width="1041"/>
  <unicode hex="0033"/>
  <outline>
    <contour>
      <point x="412" y="-20" type="curve" smooth="yes"/>
      <point x="694" y="-20"/>
      <point x="952" y="150"/>
      <point x="952" y="440" type="curve" smooth="yes"/>
      <point x="952" y="661"/>
      <point x="858" y="820"/>
      <point x="426" y="820" type="curve"/>
      <point x="426" y="775" type="line"/>
      <point x="714" y="775"/>
      <point x="750" y="588"/>
      <point x="750" y="440" type="curve" smooth="yes"/>
      <point x="750" y="222"/>
      <point x="610" y="49"/>
      <point x="372" y="49" type="curve" smooth="yes"/>
      <point x="196" y="49"/>
      <point x="75" y="148"/>
      <point x="75" y="268" type="curve"/>
      <point x="2" y="268" type="line"/>
      <point x="2" y="218"/>
      <point x="56" y="180"/>
      <point x="114" y="180" type="curve" smooth="yes"/>
      <point x="173" y="180"/>
      <point x="227" y="221"/>
      <point x="227" y="285" type="curve" smooth="yes"/>
      <point x="227" y="357"/>
      <point x="181" y="396"/>
      <point x="120" y="396" type="curve" smooth="yes"/>
      <point x="50" y="396"/>
      <point x="0" y="350"/>
      <point x="0" y="268" type="curve" smooth="yes"/>
      <point x="0" y="123"/>
      <point x="128" y="-20"/>
    </contour>
    <contour>
      <point x="426" y="802" type="line"/>
      <point x="888" y="802"/>
      <point x="1052" y="1032"/>
      <point x="1052" y="1232" type="curve" smooth="yes"/>
      <point x="1052" y="1453"/>
      <point x="875" y="1518"/>
      <point x="652" y="1518" type="curve" smooth="yes"/>
      <point x="448" y="1518"/>
      <point x="279" y="1390"/>
      <point x="279" y="1245" type="curve" smooth="yes"/>
      <point x="279" y="1163"/>
      <point x="334" y="1121"/>
      <point x="395" y="1121" type="curve" smooth="yes"/>
      <point x="445" y="1121"/>
      <point x="508" y="1152"/>
      <point x="508" y="1232" type="curve" smooth="yes"/>
      <point x="508" y="1302"/>
      <point x="454" y="1338"/>
      <point x="395" y="1338" type="curve" smooth="yes"/>
      <point x="344" y="1338"/>
      <point x="281" y="1305"/>
      <point x="281" y="1245" type="curve"/>
      <point x="354" y="1245" type="line"/>
      <point x="354" y="1375"/>
      <point x="489" y="1448"/>
      <point x="622" y="1448" type="curve" smooth="yes"/>
      <point x="780" y="1448"/>
      <point x="850" y="1360"/>
      <point x="850" y="1232" type="curve" smooth="yes"/>
      <point x="850" y="1104"/>
      <point x="744" y="847"/>
      <point x="426" y="847" type="curve"/>
    </contour>
  </outline>
</glyph>
<glyph name="H" format="2">
  <advance width="1439"/>
  <unicode hex="0048"/>
  <anchor x="606" y="0" name="bottom"/>
  <anchor x="178" y="0" name="cedilla"/>
  <anchor x="939" y="1500" name="top"/>
  <outline>
    <contour>
      <point x="414" y="703" type="line"/>
      <point x="1134" y="703" type="line"/>
      <point x="1134" y="776" type="line"/>
      <point x="414" y="776" type="line"/>
    </contour>
    <contour>
      <point x="790" y="1427" type="line"/>
      <point x="790" y="1500" type="line"/>
      <point x="250" y="1500" type="line"/>
      <point x="250" y="1427" type="line"/>
      <point x="413" y="1427" type="line"/>
      <point x="107" y="73" type="line"/>
      <point x="-80" y="73" type="line"/>
      <point x="-80" y="0" type="line"/>
      <point x="460" y="0" type="line"/>
      <point x="460" y="73" type="line"/>
      <point x="296" y="73" type="line"/>
      <point x="603" y="1427" type="line"/>
    </contour>
    <contour>
      <point x="1630" y="1500" type="line"/>
      <point x="1090" y="1500" type="line"/>
      <point x="1090" y="1427" type="line"/>
      <point x="1253" y="1427" type="line"/>
      <point x="947" y="73" type="line"/>
      <point x="760" y="73" type="line"/>
      <point x="760" y="0" type="line"/>
      <point x="1300" y="0" type="line"/>
      <point x="1300" y="73" type="line"/>
      <point x="1137" y="73" type="line"/>
      <point x="1443" y="1427" type="line"/>
      <point x="1630" y="1427" type="line"/>
    </contour>
  </outline>
</glyph>
<glyph name="b" format="2">
  <advance width="1000"/>
  <unicode hex="0062"/>
  <anchor x="375" y="0" name="bottom"/>
  <anchor x="635" y="920" name="top"/>
  <outline>
    <contour>
      <point x="361" y="-20" type="curve" smooth="yes"/>
      <point x="659" y="-20"/>
      <point x="915" y="263"/>
      <point x="915" y="575" type="curve" smooth="yes"/>
      <point x="915" y="791"/>
      <point x="800" y="938"/>
      <point x="636" y="938" type="curve" smooth="yes"/>
      <point x="464" y="938"/>
      <point x="316" y="754"/>
      <point x="222" y="460" type="curve"/>
      <point x="286" y="460" type="line"/>
      <point x="349" y="689"/>
      <point x="465" y="857"/>
      <point x="617" y="857" type="curve" smooth="yes"/>
      <point x="689" y="857"/>
      <point x="757" y="822"/>
      <point x="757" y="674" type="curve" smooth="yes"/>
      <point x="757" y="396"/>
      <point x="586" y="63"/>
      <point x="355" y="63" type="curve" smooth="yes"/>
      <point x="275" y="63"/>
      <point x="214" y="121"/>
      <point x="214" y="189" type="curve"/>
      <point x="567" y="1500" type="line"/>
      <point x="240" y="1500" type="line"/>
      <point x="240" y="1427" type="line"/>
      <point x="389" y="1427" type="line"/>
      <point x="70" y="240" type="line"/>
      <point x="110" y="114"/>
      <point x="199" y="-20"/>
    </contour>
  </outline>
</glyph>
<glyph name="l" format="2">
  <advance width="595"/>
  <unicode hex="006C"/>
  <anchor x="201" y="0" name="bottom"/>
  <anchor x="203" y="0" name="cedilla"/>
  <anchor x="415" y="1500" name="top"/>
  <anchor x="563" y="920" name="topright"/>
  <outline>
    <contour>
      <point x="207" y="-20" type="curve" smooth="yes"/>
      <point x="355" y="-20"/>
      <point x="432" y="76"/>
      <point x="518" y="306" type="curve"/>
      <point x="447" y="330" type="line"/>
      <point x="370" y="148"/>
      <point x="317" y="71"/>
      <point x="256" y="71" type="curve" smooth="yes"/>
      <point x="231" y="71"/>
      <point x="216" y="88"/>
      <point x="216" y="109" type="curve" smooth="yes"/>
      <point x="216" y="119"/>
      <point x="217.783" y="133.059"/>
      <point x="221" y="145" type="curve" smooth="yes"/>
      <point x="586" y="1500" type="line"/>
      <point x="229" y="1500" type="line"/>
      <point x="229" y="1427" type="line"/>
      <point x="408" y="1427" type="line"/>
      <point x="69" y="170" type="line" smooth="yes"/>
      <point x="64.272" y="152.466"/>
      <point x="60" y="133"/>
      <point x="60" y="106" type="curve" smooth="yes"/>
      <point x="60" y="31"/>
      <point x="103" y="-20"/>
    </contour>
  </outline>
</glyph>
<glyph name="p" format="2">
  <advance width="1120"/>
  <unicode hex="0070"/>
  <anchor x="512" y="0" name="bottom"/>
  <anchor x="712" y="920" name="top"/>
  <outline>
    <contour>
      <point x="-40" y="-500" type="line"/>
      <point x="120" y="-500" type="line"/>
      <point x="334" y="305" type="line"/>
      <point x="346" y="426" type="line"/>
      <point x="396" y="588" type="line"/>
      <point x="474" y="920" type="line"/>
      <point x="196" y="920" type="line"/>
      <point x="196" y="847" type="line"/>
      <point x="322" y="847" type="line"/>
    </contour>
    <contour>
      <point x="-180" y="-500" type="line"/>
      <point x="299" y="-500" type="line"/>
      <point x="299" y="-427" type="line"/>
      <point x="-180" y="-427" type="line"/>
    </contour>
    <contour>
      <point x="478" y="73" type="curve" smooth="yes"/>
      <point x="396" y="73"/>
      <point x="344" y="136"/>
      <point x="344" y="272" type="curve" smooth="yes"/>
      <point x="344" y="540"/>
      <point x="541" y="844"/>
      <point x="712" y="844" type="curve" smooth="yes"/>
      <point x="799" y="844"/>
      <point x="837" y="788"/>
      <point x="837" y="695" type="curve" smooth="yes"/>
      <point x="837" y="435"/>
      <point x="651" y="73"/>
    </contour>
    <contour>
      <point x="503" y="-20" type="curve" smooth="yes"/>
      <point x="719" y="-20"/>
      <point x="990" y="309"/>
      <point x="990" y="615" type="curve" smooth="yes"/>
      <point x="990" y="810"/>
      <point x="905" y="940"/>
      <point x="736" y="940" type="curve" smooth="yes"/>
      <point x="494" y="940"/>
      <point x="286" y="553"/>
      <point x="286" y="267" type="curve" smooth="yes"/>
      <point x="286" y="103"/>
      <point x="351" y="-20"/>
    </contour>
  </outline>
</glyph>
<glyph name="s" format="2">
  <advance width="834"/>
  <unicode hex="0073"/>
  <anchor x="348" y="0" name="bottom"/>
  <anchor x="487" y="920" name="top"/>
  <outline>
    <contour>
      <point x="371" y="-20" type="curve" smooth="yes"/>
      <point x="544" y="-20"/>
      <point x="724" y="86"/>
      <point x="724" y="264" type="curve" smooth="yes"/>
      <point x="724" y="550"/>
      <point x="309" y="527"/>
      <point x="309" y="727" type="curve" smooth="yes"/>
      <point x="309" y="814"/>
      <point x="396" y="863"/>
      <point x="498" y="863" type="curve" smooth="yes"/>
      <point x="606" y="863"/>
      <point x="682" y="822"/>
      <point x="682" y="760" type="curve"/>
      <point x="772" y="760" type="line"/>
      <point x="772" y="810"/>
      <point x="714" y="847"/>
      <point x="684" y="847" type="curve" smooth="yes"/>
      <point x="628.982" y="847"/>
      <point x="590" y="799"/>
      <point x="590" y="753" type="curve" smooth="yes"/>
      <point x="590" y="688"/>
      <point x="635" y="657"/>
      <point x="684" y="657" type="curve" smooth="yes"/>
      <point x="731" y="657"/>
      <point x="774" y="688"/>
      <point x="774" y="760" type="curve" smooth="yes"/>
      <point x="774" y="844"/>
      <point x="674" y="938"/>
      <point x="498" y="938" type="curve" smooth="yes"/>
      <point x="302" y="938"/>
      <point x="162" y="832"/>
      <point x="162" y="684" type="curve" smooth="yes"/>
      <point x="162" y="432"/>
      <point x="586" y="439"/>
      <point x="586" y="216" type="curve" smooth="yes"/>
      <point x="586" y="114"/>
      <point x="481" y="54"/>
      <point x="370" y="54" type="curve" smooth="yes"/>
      <point x="229" y="54"/>
      <point x="145" y="110"/>
      <point x="145" y="210" type="curve"/>
      <point x="42" y="210" type="line"/>
      <point x="42" y="150"/>
      <point x="84.384" y="124"/>
      <point x="137" y="124" type="curve" smooth="yes"/>
      <point x="187" y="124"/>
      <point x="233" y="157"/>
      <point x="233" y="218" type="curve" smooth="yes"/>
      <point x="233" y="277"/>
      <point x="195" y="319"/>
      <point x="140" y="319" type="curve" smooth="yes"/>
      <point x="77" y="319"/>
      <point x="40" y="269"/>
      <point x="40" y="210" type="curve" smooth="yes"/>
      <point x="40" y="61"/>
      <point x="203" y="-20"/>
    </contour>
  </outline>
</glyph>
<glyph name="exclamdown" format="2">
  <advance width="637"/>
  <unicode hex="00A1"/>
  <outline>
    <contour>
      <point x="170" y="-476" type="curve" smooth="yes"/>
      <point x="268" y="-476"/>
      <point x="298" y="-389"/>
      <point x="298" y="-278" type="curve" smooth="yes"/>
      <point x="298" y="-26"/>
      <point x="356" y="324"/>
      <point x="417" y="624" type="curve"/>
      <point x="343" y="624" type="line"/>
      <point x="263" y="324"/>
      <point x="102" y="-126"/>
      <point x="62" y="-338" type="curve" smooth="yes"/>
      <point x="46" y="-420"/>
      <point x="100" y="-476"/>
    </contour>
    <contour>
      <point x="460" y="824" type="curve" smooth="yes"/>
      <point x="526" y="824"/>
      <point x="577" y="876"/>
      <point x="577" y="942" type="curve" smooth="yes"/>
      <point x="577" y="1008"/>
      <point x="526" y="1060"/>
      <point x="460" y="1060" type="curve" smooth="yes"/>
      <point x="394" y="1060"/>
      <point x="342" y="1008"/>
      <point x="342" y="942" type="curve" smooth="yes"/>
      <point x="342" y="876"/>
      <point x="394" y="824"/>
    </contour>
  </outline>
</glyph>
<glyph name="cent" format="2">
  <advance width="895"/>
  <unicode hex="00A2"/>
  <anchor x="395" y="0" name="bottom"/>
  <anchor x="595" y="920" name="top"/>
  <outline>
    <contour>
      <point x="367" y="-20" type="curve" smooth="yes"/>
      <point x="559" y="-20"/>
      <point x="700" y="108"/>
      <point x="779" y="259" type="curve"/>
      <point x="711" y="300" type="line"/>
      <point x="626" y="158"/>
      <point x="526" y="72"/>
      <point x="381" y="72" type="curve" smooth="yes"/>
      <point x="288" y="72"/>
      <point x="219" y="114"/>
      <point x="219" y="213" type="curve" smooth="yes"/>
      <point x="219" y="471"/>
      <point x="388" y="856"/>
      <point x="616" y="856" type="curve" smooth="yes"/>
      <point x="703" y="856"/>
      <point x="790" y="798"/>
      <point x="790" y="750" type="curve"/>
      <point x="863" y="750" type="line"/>
      <point x="863" y="820"/>
      <point x="814" y="836"/>
      <point x="757" y="836" type="curve" smooth="yes"/>
      <point x="706" y="836"/>
      <point x="663" y="791"/>
      <point x="663" y="736" type="curve" smooth="yes"/>
      <point x="663" y="666"/>
      <point x="712" y="636"/>
      <point x="762" y="636" type="curve" smooth="yes"/>
      <point x="820" y="636"/>
      <point x="865" y="679"/>
      <point x="865" y="750" type="curve" smooth="yes"/>
      <point x="865" y="828"/>
      <point x="767" y="940"/>
      <point x="603" y="940" type="curve" smooth="yes"/>
      <point x="321" y="940"/>
      <point x="70" y="610"/>
      <point x="70" y="300" type="curve" smooth="yes"/>
      <point x="70" y="110"/>
      <point x="175" y="-20"/>
    </contour>
    <contour>
      <point x="279" y="-170" type="line"/>
      <point x="356" y="-170" type="line"/>
      <point x="696" y="1109" type="line"/>
      <point x="619" y="1109" type="line"/>
    </contour>
  </outline>
</glyph>
<glyph name="sterling" format="2">
  <advance width="1250"/>
  <unicode hex="00A3"/>
  <outline>
    <contour>
      <point x="64" y="-40" type="curve"/>
      <point x="137" y="-40" type="line"/>
      <point x="112" y="271"/>
      <point x="660" y="320"/>
      <point x="660" y="700" type="curve" smooth="yes"/>
      <point x="660" y="870"/>
      <point x="618" y="961"/>
      <point x="618" y="1100" type="curve" smooth="yes"/>
      <point x="618" y="1248"/>
      <point x="750" y="1447"/>
      <point x="1027" y="1447" type="curve" smooth="yes"/>
      <point x="1225" y="1447"/>
      <point x="1302" y="1343"/>
      <point x="1307" y="1288" type="curve"/>
      <point x="1300" y="1290"/>
      <point x="1292" y="1290"/>
      <point x="1286" y="1290" type="curve" smooth="yes"/>
      <point x="1227" y="1290"/>
      <point x="1172" y="1250"/>
      <point x="1172" y="1180" type="curve" smooth="yes"/>
      <point x="1172" y="1100"/>
      <point x="1236" y="1068"/>
      <point x="1286" y="1068" type="curve" smooth="yes"/>
      <point x="1347" y="1068"/>
      <point x="1404" y="1109"/>
      <point x="1404" y="1191" type="curve" smooth="yes"/>
      <point x="1404" y="1355"/>
      <point x="1272" y="1520"/>
      <point x="1008" y="1520" type="curve" smooth="yes"/>
      <point x="647" y="1520"/>
      <point x="396" y="1320"/>
      <point x="396" y="1020" type="curve" smooth="yes"/>
      <point x="396" y="850"/>
      <point x="458" y="729"/>
      <point x="458" y="622" type="curve" smooth="yes"/>
      <point x="458" y="393"/>
      <point x="26" y="237"/>
    </contour>
    <contour>
      <point x="784" y="-61" type="curve" smooth="yes"/>
      <point x="962" y="-61"/>
      <point x="1144" y="24"/>
      <point x="1184" y="314" type="curve"/>
      <point x="1111" y="314" type="line"/>
      <point x="1071" y="150"/>
      <point x="922" y="126"/>
      <point x="796" y="126" type="curve" smooth="yes"/>
      <point x="644" y="126"/>
      <point x="624" y="193"/>
      <point x="424" y="193" type="curve" smooth="yes"/>
      <point x="258" y="193"/>
      <point x="160" y="108"/>
      <point x="99" y="-40" type="curve"/>
      <point x="137" y="-40" type="line"/>
      <point x="177" y="21"/>
      <point x="212" y="61"/>
      <point x="294" y="61" type="curve" smooth="yes"/>
      <point x="420" y="61"/>
      <point x="511" y="-61"/>
    </contour>
    <contour>
      <point x="130" y="736" type="line"/>
      <point x="1029" y="736" type="line"/>
      <point x="1029" y="811" type="line"/>
      <point x="130" y="811" type="line"/>
    </contour>
  </outline>
</glyph>
<glyph name="registered" format="2">
  <advance width="1739"/>
  <unicode hex="00AE"/>
  <anchor x="915.6" y="296" name="bottom"/>
  <anchor x="651.6" y="296" name="cedilla"/>
  <anchor x="999.6" y="1196" name="top"/>
  <outline>
    <contour>
      <point x="840" y="-20" type="curve" smooth="yes"/>
      <point x="1306" y="-20"/>
      <point x="1750" y="425"/>
      <point x="1750" y="891" type="curve" smooth="yes"/>
      <point x="1750" y="1278"/>
      <point x="1467" y="1520"/>
      <point x="1080" y="1520" type="curve" smooth="yes"/>
      <point x="614" y="1520"/>
      <point x="170" y="1075"/>
      <point x="170" y="609" type="curve" smooth="yes"/>
      <point x="170" y="222"/>
      <point x="453" y="-20"/>
    </contour>
    <contour>
      <point x="468" y="296" type="line"/>
      <point x="833.4" y="296" type="line"/>
      <point x="833.4" y="339.8" type="line"/>
      <point x="468" y="339.8" type="line"/>
    </contour>
    <contour>
      <point x="588" y="296" type="line"/>
      <point x="702.6" y="296" type="line"/>
      <point x="912" y="1196" type="line"/>
      <point x="798.6" y="1196" type="line"/>
    </contour>
    <contour>
      <point x="1188" y="290" type="curve" smooth="yes"/>
      <point x="1231.2" y="290"/>
      <point x="1252.8" y="293.6"/>
      <point x="1296" y="309.8" type="curve"/>
      <point x="1282.8" y="353.6" type="line"/>
      <point x="1266.6" y="346.4"/>
      <point x="1249.2" y="338.6"/>
      <point x="1224" y="338.6" type="curve" smooth="yes"/>
      <point x="1076.4" y="338.6"/>
      <point x="1347.6" y="758"/>
      <point x="936" y="758" type="curve" smooth="yes"/>
      <point x="774" y="758" type="line"/>
      <point x="774" y="735.8" type="line"/>
      <point x="912" y="735.8" type="line" smooth="yes"/>
      <point x="1207.2" y="735.8"/>
      <point x="908.4" y="290"/>
    </contour>
    <contour>
      <point x="840" y="53" type="curve" smooth="yes"/>
      <point x="492" y="53"/>
      <point x="243" y="261"/>
      <point x="243" y="609" type="curve" smooth="yes"/>
      <point x="243" y="1035"/>
      <point x="654" y="1447"/>
      <point x="1080" y="1447" type="curve" smooth="yes"/>
      <point x="1426" y="1447"/>
      <point x="1677" y="1231"/>
      <point x="1677" y="891" type="curve" smooth="yes"/>
      <point x="1677" y="465"/>
      <point x="1266" y="53"/>
    </contour>
    <contour>
      <point x="774" y="754.4" type="line"/>
      <point x="948.6" y="754.4" type="line" smooth="yes"/>
      <point x="1189.8" y="754.4"/>
      <point x="1326" y="848.6"/>
      <point x="1326" y="1016" type="curve" smooth="yes"/>
      <point x="1326" y="1148.6"/>
      <point x="1225.2" y="1196"/>
      <point x="1068" y="1196" type="curve" smooth="yes"/>
      <point x="666" y="1196" type="line"/>
      <point x="666" y="1152.2" type="line"/>
      <point x="1068" y="1152.2" type="line" smooth="yes"/>
      <point x="1182.6" y="1152.2"/>
      <point x="1194" y="1087.4"/>
      <point x="1194" y="1028.6" type="curve" smooth="yes"/>
      <point x="1194" y="909.8"/>
      <point x="1111.2" y="780.2"/>
      <point x="948.6" y="780.2" type="curve" smooth="yes"/>
      <point x="774" y="780.2" type="line"/>
    </contour>
  </outline>
</glyph>
<glyph name="ordmasculine" format="2">
  <advance width="983"/>
  <unicode hex="00BA"/>
  <anchor x="667" y="962" name="bottom"/>
  <anchor x="806.8" y="1514" name="top"/>
  <outline>
    <contour>
      <point x="668.2" y="950" type="curve" smooth="yes"/>
      <point x="837.4" y="950"/>
      <point x="989.8" y="1124"/>
      <point x="989.8" y="1334" type="curve" smooth="yes"/>
      <point x="989.8" y="1442"/>
      <point x="932.8" y="1526"/>
      <point x="811.6" y="1526" type="curve" smooth="yes"/>
      <point x="642.4" y="1526"/>
      <point x="490" y="1351.4"/>
      <point x="490" y="1141.4" type="curve" smooth="yes"/>
      <point x="490" y="1033.4"/>
      <point x="547" y="950"/>
    </contour>
    <contour>
      <point x="668.2" y="993.2" type="curve" smooth="yes"/>
      <point x="607" y="993.2"/>
      <point x="578.8" y="1030.4"/>
      <point x="578.8" y="1089.2" type="curve" smooth="yes"/>
      <point x="578.8" y="1268"/>
      <point x="680.8" y="1482.2"/>
      <point x="811.6" y="1482.2" type="curve" smooth="yes"/>
      <point x="872.8" y="1482.2"/>
      <point x="901" y="1445"/>
      <point x="901" y="1386.2" type="curve" smooth="yes"/>
      <point x="901" y="1207.4"/>
      <point x="799" y="993.2"/>
    </contour>
  </outline>
</glyph>
<glyph name="oslash" format="2">
  <advance width="983"/>
  <unicode hex="00F8"/>
  <outline>
    <contour>
      <point x="-116" y="-246.452" type="line"/>
      <point x="-21" y="-246.452" type="line"/>
      <point x="1185" y="1158.305" type="line"/>
      <point x="1091" y="1158.305" type="line"/>
    </contour>
    <component base="o"/>
  </outline>
</glyph>
<glyph name="dcroat" format="2">
  <advance width="1107"/>
  <unicode hex="0111"/>
  <outline>
    <contour>
      <point x="603.66" y="1104" type="line"/>
      <point x="1163.64" y="1104" type="line"/>
      <point x="1163.64" y="1176" type="line"/>
      <point x="603.66" y="1176" type="line"/>
    </contour>
    <component base="d"/>
  </outline>
</glyph>
<glyph name="Tbar" format="2">
  <advance width="1309"/>
  <unicode hex="0166"/>
  <outline>
    <contour>
      <point x="432.969" y="714" type="line"/>
      <point x="1016.975" y="714" type="line"/>
      <point x="1016.975" y="786" type="line"/>
      <point x="432.969" y="786" type="line"/>
    </contour>
    <component base="T"/>
  </outline>
</glyph>
<glyph name="dotaccentcomb" format="2">
  <unicode hex="0307"/>
  <anchor x="606" y="920" name="_top"/>
  <outline>
    <contour>
      <point x="706" y="1271" type="curve" smooth="yes"/>
      <point x="772" y="1271"/>
      <point x="827" y="1326"/>
      <point x="827" y="1392" type="curve" smooth="yes"/>
      <point x="827" y="1458"/>
      <point x="772" y="1512"/>
      <point x="706" y="1512" type="curve" smooth="yes"/>
      <point x="640" y="1512"/>
      <point x="587" y="1458"/>
      <point x="587" y="1392" type="curve" smooth="yes"/>
      <point x="587" y="1326"/>
      <point x="640" y="1271"/>
    </contour>
  </outline>
</glyph>
<glyph name="hungarumlautcomb" format="2">
  <unicode hex="030B"/>
  <anchor x="733" y="1500" name="_top"/>
  <outline>
    <contour>
      <point x="893" y="1670" type="line"/>
      <point x="1145" y="1817" type="line" smooth="yes"/>
      <point x="1177" y="1836"/>
      <point x="1191" y="1882"/>
      <point x="1172" y="1915" type="curve" smooth="yes"/>
      <point x="1153" y="1948"/>
      <point x="1102" y="1967"/>
      <point x="1060" y="1926" type="curve" smooth="yes"/>
      <point x="848" y="1719" type="line"/>
    </contour>
    <contour>
      <point x="483" y="1670" type="line"/>
      <point x="735" y="1817" type="line" smooth="yes"/>
      <point x="767" y="1836"/>
      <point x="781" y="1882"/>
      <point x="762" y="1915" type="curve" smooth="yes"/>
      <point x="743" y="1948"/>
      <point x="692" y="1967"/>
      <point x="650" y="1926" type="curve" smooth="yes"/>
      <point x="438" y="1719" type="line"/>
    </contour>
  </outline>
</glyph>
<glyph name="dotbelowcomb" format="2">
  <unicode hex="0323"/>
  <anchor x="394" y="0" name="_bottom"/>
  <outline>
    <contour>
      <point x="331" y="-410" type="curve" smooth="yes"/>
      <point x="397" y="-410"/>
      <point x="451" y="-355"/>
      <point x="451" y="-289" type="curve" smooth="yes"/>
      <point x="451" y="-223"/>
      <point x="397" y="-169"/>
      <point x="331" y="-169" type="curve" smooth="yes"/>
      <point x="265" y="-169"/>
      <point x="211" y="-223"/>
      <point x="211" y="-289" type="curve" smooth="yes"/>
      <point x="211" y="-355"/>
      <point x="265" y="-410"/>
    </contour>
  </outline>
</glyph>
<glyph name="commaaccentcomb" format="2">
  <unicode hex="0326"/>
  <anchor x="371" y="0" name="_bottom"/>
  <outline>
    <contour>
      <point x="144" y="-623" type="line"/>
      <point x="288" y="-623"/>
      <point x="433" y="-467"/>
      <point x="433" y="-323" type="curve" smooth="yes"/>
      <point x="433" y="-239"/>
      <point x="389" y="-200"/>
      <point x="326" y="-200" type="curve" smooth="yes"/>
      <point x="265" y="-200"/>
      <point x="219" y="-247"/>
      <point x="219" y="-299" type="curve" smooth="yes"/>
      <point x="219" y="-348"/>
      <point x="250" y="-389"/>
      <point x="319" y="-389" type="curve" smooth="yes"/>
      <point x="365" y="-389"/>
      <point x="432" y="-363"/>
      <point x="432" y="-323" type="curve"/>
      <point x="373" y="-323" type="line"/>
      <point x="373" y="-435"/>
      <point x="249" y="-563"/>
      <point x="144" y="-563" type="curve"/>
    </contour>
  </outline>
</glyph>
<glyph name="quoteleft" format="2">
  <advance width="429"/>
  <unicode hex="2018"/>
  <outline>
    <contour>
      <point x="407" y="1032" type="curve" smooth="yes"/>
      <point x="483" y="1032"/>
      <point x="541" y="1090"/>
      <point x="541" y="1156" type="curve" smooth="yes"/>
      <point x="541" y="1217"/>
      <point x="502" y="1268"/>
      <point x="416" y="1268" type="curve" smooth="yes"/>
      <point x="358" y="1268"/>
      <point x="275" y="1236"/>
      <point x="275" y="1186" type="curve"/>
      <point x="348" y="1186" type="line"/>
      <point x="348" y="1326"/>
      <point x="503" y="1486"/>
      <point x="635" y="1486" type="curve"/>
      <point x="635" y="1560" type="line"/>
      <point x="455" y="1560"/>
      <point x="273" y="1366"/>
      <point x="273" y="1186" type="curve" smooth="yes"/>
      <point x="273" y="1081"/>
      <point x="329" y="1032"/>
    </contour>
  </outline>
</glyph>
<glyph name="perthousand" format="2">
  <advance width="2939"/>
  <unicode hex="2030"/>
  <outline>
    <contour>
      <point x="387" y="0" type="line"/>
      <point x="484" y="0" type="line"/>
      <point x="1790" y="1500" type="line"/>
      <point x="1691" y="1500" type="line"/>
    </contour>
    <contour>
      <point x="550" y="641" type="curve" smooth="yes"/>
      <point x="816" y="641"/>
      <point x="1029" y="895"/>
      <point x="1029" y="1221" type="curve" smooth="yes"/>
      <point x="1029" y="1427"/>
      <point x="916" y="1520"/>
      <point x="730" y="1520" type="curve" smooth="yes"/>
      <point x="464" y="1520"/>
      <point x="250" y="1265"/>
      <point x="250" y="939" type="curve" smooth="yes"/>
      <point x="250" y="733"/>
      <point x="364" y="641"/>
    </contour>
    <contour>
      <point x="550" y="713" type="curve" smooth="yes"/>
      <point x="482" y="713"/>
      <point x="450" y="776"/>
      <point x="450" y="900" type="curve" smooth="yes"/>
      <point x="450" y="1164"/>
      <point x="582" y="1447"/>
      <point x="730" y="1447" type="curve" smooth="yes"/>
      <point x="798" y="1447"/>
      <point x="830" y="1384"/>
      <point x="830" y="1260" type="curve" smooth="yes"/>
      <point x="830" y="996"/>
      <point x="698" y="713"/>
    </contour>
    <contour>
      <point x="1460" y="-20" type="curve" smooth="yes"/>
      <point x="1726" y="-20"/>
      <point x="1939" y="235"/>
      <point x="1939" y="561" type="curve" smooth="yes"/>
      <point x="1939" y="767"/>
      <point x="1827" y="859"/>
      <point x="1641" y="859" type="curve" smooth="yes"/>
      <point x="1375" y="859"/>
      <point x="1160" y="605"/>
      <point x="1160" y="279" type="curve" smooth="yes"/>
      <point x="1160" y="73"/>
      <point x="1274" y="-20"/>
    </contour>
    <contour>
      <point x="1460" y="53" type="curve" smooth="yes"/>
      <point x="1392" y="53"/>
      <point x="1359" y="116"/>
      <point x="1359" y="240" type="curve" smooth="yes"/>
      <point x="1359" y="504"/>
      <point x="1493" y="787"/>
      <point x="1641" y="787" type="curve" smooth="yes"/>
      <point x="1709" y="787"/>
      <point x="1740" y="724"/>
      <point x="1740" y="600" type="curve" smooth="yes"/>
      <point x="1740" y="336"/>
      <point x="1608" y="53"/>
    </contour>
    <contour>
      <point x="2399" y="-20" type="curve" smooth="yes"/>
      <point x="2665" y="-20"/>
      <point x="2879" y="235"/>
      <point x="2879" y="561" type="curve" smooth="yes"/>
      <point x="2879" y="767"/>
      <point x="2766" y="859"/>
      <point x="2580" y="859" type="curve" smooth="yes"/>
      <point x="2314" y="859"/>
      <point x="2100" y="605"/>
      <point x="2100" y="279" type="curve" smooth="yes"/>
      <point x="2100" y="73"/>
      <point x="2213" y="-20"/>
    </contour>
    <contour>
      <point x="2399" y="53" type="curve" smooth="yes"/>
      <point x="2331" y="53"/>
      <point x="2299" y="116"/>
      <point x="2299" y="240" type="curve" smooth="yes"/>
      <point x="2299" y="504"/>
      <point x="2432" y="787"/>
      <point x="2580" y="787" type="curve" smooth="yes"/>
      <point x="2648" y="787"/>
      <point x="2680" y="724"/>
      <point x="2680" y="600" type="curve" smooth="yes"/>
      <point x="2680" y="336"/>
      <point x="2547" y="53"/>
    </contour>
  </outline>
</glyph>
<glyph name="foursuperior" format="2">
  <advance width="761"/>
  <unicode hex="2074"/>
  <outline>
    <contour>
      <point x="556.4" y="919" type="line"/>
      <point x="670.4" y="919" type="line"/>
      <point x="862.4" y="1819" type="line"/>
      <point x="743" y="1819" type="line"/>
      <point x="194.6" y="1155.4" type="line"/>
      <point x="862.4" y="1155.4" type="line"/>
      <point x="862.4" y="1199.2" type="line"/>
      <point x="287" y="1199.2" type="line"/>
      <point x="728.6" y="1733.8" type="line"/>
    </contour>
    <contour>
      <point x="454.4" y="919" type="line"/>
      <point x="772.4" y="919" type="line"/>
      <point x="772.4" y="962.8" type="line"/>
      <point x="454.4" y="962.8" type="line"/>
    </contour>
  </outline>
</glyph>
<glyph name="notequal" format="2">
  <advance width="1119"/>
  <unicode hex="2260"/>
  <outline>
    <contour>
      <point x="341.329" y="275.859" type="line"/>
      <point x="983.461" y="1192.918" type="line"/>
      <point x="924.482" y="1234.216" type="line"/>
      <point x="282.35" y="317.157" type="line"/>
    </contour>
    <contour>
      <point x="204" y="584" type="line"/>
      <point x="1084" y="584" type="line"/>
      <point x="1084" y="656" type="line"/>
      <point x="204" y="656" type="line"/>
    </contour>
    <contour>
      <point x="204" y="885" type="line"/>
      <point x="1084" y="885" type="line"/>
      <point x="1084" y="957" type="line"/>
      <point x="204" y="957" type="line"/>
    </contour>
  </outline>
</glyph>
<glyph name="fi" format="2">
  <advance width="1137"/>
  <unicode hex="FB01"/>
  <outline>
    <contour>
      <point x="-174" y="-520" type="curve" smooth="yes"/>
      <point x="86" y="-520"/>
      <point x="198.027" y="-267.539"/>
      <point x="257" y="-23" type="curve" smooth="yes"/>
      <point x="522" y="1080" type="line" smooth="yes"/>
      <point x="579.604" y="1318.86"/>
      <point x="643" y="1447"/>
      <point x="814" y="1447" type="curve" smooth="yes"/>
      <point x="939" y="1447"/>
      <point x="1007" y="1392"/>
      <point x="1007" y="1322" type="curve"/>
      <point x="1080" y="1322" type="line"/>
      <point x="1080" y="1392"/>
      <point x="997" y="1418"/>
      <point x="960" y="1418" type="curve" smooth="yes"/>
      <point x="911" y="1418"/>
      <point x="854" y="1377"/>
      <point x="854" y="1307" type="curve" smooth="yes"/>
      <point x="854" y="1227"/>
      <point x="919" y="1198"/>
      <point x="969" y="1198" type="curve" smooth="yes"/>
      <point x="1030" y="1198"/>
      <point x="1082" y="1240"/>
      <point x="1082" y="1322" type="curve" smooth="yes"/>
      <point x="1082" y="1406"/>
      <point x="1007" y="1520"/>
      <point x="815" y="1520" type="curve" smooth="yes"/>
      <point x="525" y="1520"/>
      <point x="396.694" y="1270.17"/>
      <point x="340" y="1023" type="curve" smooth="yes"/>
      <point x="87" y="-80" type="line" smooth="yes"/>
      <point x="32.157" y="-319.098"/>
      <point x="-23" y="-452"/>
      <point x="-164" y="-452" type="curve" smooth="yes"/>
      <point x="-229" y="-452"/>
      <point x="-295" y="-417"/>
      <point x="-295" y="-377" type="curve"/>
      <point x="-368" y="-377" type="line"/>
      <point x="-368" y="-447"/>
      <point x="-306" y="-468"/>
      <point x="-262" y="-468" type="curve" smooth="yes"/>
      <point x="-213" y="-468"/>
      <point x="-161" y="-423"/>
      <point x="-161" y="-372" type="curve" smooth="yes"/>
      <point x="-161" y="-302"/>
      <point x="-213" y="-268"/>
      <point x="-263" y="-268" type="curve" smooth="yes"/>
      <point x="-324" y="-268"/>
      <point x="-370" y="-305"/>
      <point x="-370" y="-377" type="curve" smooth="yes"/>
      <point x="-370" y="-451"/>
      <point x="-296" y="-520"/>
    </contour>
    <contour>
      <point x="779" y="-20" type="curve" smooth="yes"/>
      <point x="916" y="-20"/>
      <point x="996" y="66"/>
      <point x="1087" y="306" type="curve"/>
      <point x="1015" y="330" type="line"/>
      <point x="938" y="139"/>
      <point x="881" y="71"/>
      <point x="823" y="71" type="curve" smooth="yes"/>
      <point x="798" y="71"/>
      <point x="785" y="88"/>
      <point x="785" y="109" type="curve" smooth="yes"/>
      <point x="785" y="119"/>
      <point x="787" y="133"/>
      <point x="790" y="145" type="curve" smooth="yes"/>
      <point x="1011" y="920" type="line"/>
      <point x="135" y="920" type="line"/>
      <point x="135" y="847" type="line"/>
      <point x="833" y="847" type="line"/>
      <point x="636" y="170" type="line" smooth="yes"/>
      <point x="631.473" y="154.444"/>
      <point x="627" y="126"/>
      <point x="627" y="116" type="curve" smooth="yes"/>
      <point x="627" y="26"/>
      <point x="675" y="-20"/>
    </contour>
  </outline>
</glyph>
<glyph name="a.sc" format="2">
  <advance width="1199"/>
  <anchor x="360" y="0" name="bottom"/>
  <anchor x="810" y="0" name="ogonek"/>
  <anchor x="631" y="1010" name="top"/>
  <outline>
    <contour>
      <point x="153" y="293" type="line"/>
      <point x="773" y="293" type="line"/>
      <point x="789" y="366" type="line"/>
      <point x="169" y="366" type="line"/>
    </contour>
    <contour>
      <point x="675" y="1039" type="line"/>
      <point x="600" y="1039" type="line"/>
      <point x="-62" y="73" type="line"/>
      <point x="-193" y="73" type="line"/>
      <point x="-210" y="0" type="line"/>
      <point x="150" y="0" type="line"/>
      <point x="167" y="73" type="line"/>
      <point x="21" y="73" type="line"/>
      <point x="517" y="814" type="line"/>
      <point x="660" y="73" type="line"/>
      <point x="506" y="73" type="line"/>
      <point x="489" y="0" type="line"/>
      <point x="989" y="0" type="line"/>
      <point x="1006" y="73" type="line"/>
      <point x="880" y="73" type="line"/>
    </contour>
  </outline>
</glyph>
<glyph name="f_f_l" format="2">
  <advance width="1765"/>
  <outline>
    <contour>
      <point x="381" y="-420" type="curve" smooth="yes"/>
      <point x="621" y="-420"/>
      <point x="768.11" y="-169.187"/>
      <point x="828" y="77" type="curve" smooth="yes"/>
      <point x="1072" y="1080" type="line" smooth="yes"/>
      <point x="1119.06" y="1320.8"/>
      <point x="1212" y="1447"/>
      <point x="1373" y="1447" type="curve" smooth="yes"/>
      <point x="1478" y="1447"/>
      <point x="1569" y="1412"/>
      <point x="1569" y="1332" type="curve"/>
      <point x="1642" y="1332" type="line"/>
      <point x="1642" y="1402"/>
      <point x="1570" y="1428"/>
      <point x="1526" y="1428" type="curve" smooth="yes"/>
      <point x="1477" y="1428"/>
      <point x="1418" y="1387"/>
      <point x="1418" y="1317" type="curve" smooth="yes"/>
      <point x="1418" y="1237"/>
      <point x="1480" y="1208"/>
      <point x="1530" y="1208" type="curve" smooth="yes"/>
      <point x="1591" y="1208"/>
      <point x="1644" y="1250"/>
      <point x="1644" y="1332" type="curve" smooth="yes"/>
      <point x="1644" y="1416"/>
      <point x="1555" y="1520"/>
      <point x="1373" y="1520" type="curve" smooth="yes"/>
      <point x="1093" y="1520"/>
      <point x="937.417" y="1269.68"/>
      <point x="887" y="1023" type="curve" smooth="yes"/>
      <point x="662" y="20" type="line" smooth="yes"/>
      <point x="608.15" y="-220.05"/>
      <point x="522" y="-347"/>
      <point x="381" y="-347" type="curve" smooth="yes"/>
      <point x="276" y="-347"/>
      <point x="209" y="-292"/>
      <point x="209" y="-222" type="curve"/>
      <point x="136" y="-222" type="line"/>
      <point x="136" y="-292"/>
      <point x="219" y="-318"/>
      <point x="256" y="-318" type="curve" smooth="yes"/>
      <point x="305" y="-318"/>
      <point x="362" y="-277"/>
      <point x="362" y="-207" type="curve" smooth="yes"/>
      <point x="362" y="-127"/>
      <point x="297" y="-98"/>
      <point x="247" y="-98" type="curve" smooth="yes"/>
      <point x="186" y="-98"/>
      <point x="134" y="-140"/>
      <point x="134" y="-222" type="curve" smooth="yes"/>
      <point x="134" y="-306"/>
      <point x="209" y="-420"/>
    </contour>
    <contour>
      <point x="-174" y="-520" type="curve" smooth="yes"/>
      <point x="46" y="-520"/>
      <point x="199.498" y="-268.425"/>
      <point x="257" y="-23" type="curve" smooth="yes"/>
      <point x="492" y="980" type="line" smooth="yes"/>
      <point x="548.043" y="1219.2"/>
      <point x="622" y="1347"/>
      <point x="773" y="1347" type="curve" smooth="yes"/>
      <point x="878" y="1347"/>
      <point x="945" y="1292"/>
      <point x="945" y="1222" type="curve"/>
      <point x="1018" y="1222" type="line"/>
      <point x="1018" y="1292"/>
      <point x="935" y="1318"/>
      <point x="898" y="1318" type="curve" smooth="yes"/>
      <point x="849" y="1318"/>
      <point x="792" y="1277"/>
      <point x="792" y="1207" type="curve" smooth="yes"/>
      <point x="792" y="1127"/>
      <point x="857" y="1098"/>
      <point x="907" y="1098" type="curve" smooth="yes"/>
      <point x="968" y="1098"/>
      <point x="1020" y="1140"/>
      <point x="1020" y="1222" type="curve" smooth="yes"/>
      <point x="1020" y="1306"/>
      <point x="945" y="1420"/>
      <point x="773" y="1420" type="curve" smooth="yes"/>
      <point x="503" y="1420"/>
      <point x="374.166" y="1170.08"/>
      <point x="318" y="923" type="curve" smooth="yes"/>
      <point x="90" y="-80" type="line" smooth="yes"/>
      <point x="35.562" y="-319.479"/>
      <point x="-26" y="-452"/>
      <point x="-164" y="-452" type="curve" smooth="yes"/>
      <point x="-249" y="-452"/>
      <point x="-295" y="-408"/>
      <point x="-295" y="-372" type="curve"/>
      <point x="-368" y="-372" type="line"/>
      <point x="-368" y="-442"/>
      <point x="-306" y="-468"/>
      <point x="-262" y="-468" type="curve" smooth="yes"/>
      <point x="-213" y="-468"/>
      <point x="-160" y="-427"/>
      <point x="-160" y="-367" type="curve" smooth="yes"/>
      <point x="-160" y="-301"/>
      <point x="-216" y="-268"/>
      <point x="-266" y="-268" type="curve" smooth="yes"/>
      <point x="-327" y="-268"/>
      <point x="-370" y="-310"/>
      <point x="-370" y="-372" type="curve" smooth="yes"/>
      <point x="-370" y="-456"/>
      <point x="-296" y="-520"/>
    </contour>
    <contour>
      <point x="133" y="847" type="line"/>
      <point x="1312" y="847" type="line"/>
      <point x="1312" y="920" type="line"/>
      <point x="133" y="920" type="line"/>
    </contour>
    <contour>
      <point x="1391" y="-20" type="curve" smooth="yes"/>
      <point x="1519" y="-20"/>
      <point x="1602" y="76"/>
      <point x="1688" y="306" type="curve"/>
      <point x="1616" y="330" type="line"/>
      <point x="1538" y="138"/>
      <point x="1482" y="70"/>
      <point x="1424" y="70" type="curve" smooth="yes"/>
      <point x="1399" y="70"/>
      <point x="1387" y="88"/>
      <point x="1387" y="109" type="curve" smooth="yes"/>
      <point x="1387" y="119"/>
      <point x="1388" y="133"/>
      <point x="1391" y="145" type="curve" smooth="yes"/>
      <point x="1767" y="1540" type="line"/>
      <point x="1584" y="1450" type="line"/>
      <point x="1239" y="170" type="line" smooth="yes"/>
      <point x="1235.78" y="158.059"/>
      <point x="1230" y="126"/>
      <point x="1230" y="106" type="curve" smooth="yes"/>
      <point x="1230" y="16"/>
      <point x="1287" y="-20"/>
    </contour>
  </outline>
</glyph>
<glyph name="f_j.liga" format="2">
  <advance width="1075"/>
  <outline>
    <contour>
      <point x="-172" y="-520" type="curve" smooth="yes"/>
      <point x="48" y="-520"/>
      <point x="198.331" y="-269.991"/>
      <point x="257" y="-23" type="curve" smooth="yes"/>
      <point x="519" y="1080" type="line" smooth="yes"/>
      <point x="563" y="1324"/>
      <point x="652" y="1447"/>
      <point x="818" y="1447" type="curve" smooth="yes"/>
      <point x="888" y="1447"/>
      <point x="943" y="1432"/>
      <point x="961" y="1418" type="curve"/>
      <point x="960" y="1418"/>
      <point x="959" y="1418"/>
      <point x="958" y="1418" type="curve" smooth="yes"/>
      <point x="925" y="1418"/>
      <point x="857" y="1387"/>
      <point x="857" y="1307" type="curve" smooth="yes"/>
      <point x="857" y="1227"/>
      <point x="920" y="1198"/>
      <point x="970" y="1198" type="curve" smooth="yes"/>
      <point x="1031" y="1198"/>
      <point x="1084" y="1240"/>
      <point x="1084" y="1322" type="curve" smooth="yes"/>
      <point x="1084" y="1406"/>
      <point x="1020" y="1520"/>
      <point x="818" y="1520" type="curve" smooth="yes"/>
      <point x="518" y="1520"/>
      <point x="385" y="1275"/>
      <point x="341" y="1023" type="curve" smooth="yes"/>
      <point x="88" y="-80" type="line" smooth="yes"/>
      <point x="32.731" y="-320.956"/>
      <point x="-30" y="-452"/>
      <point x="-171" y="-452" type="curve" smooth="yes"/>
      <point x="-182" y="-452"/>
      <point x="-191" y="-450"/>
      <point x="-203" y="-448" type="curve"/>
      <point x="-202" y="-448"/>
      <point x="-200.8" y="-446.6"/>
      <point x="-200" y="-446" type="curve" smooth="yes"/>
      <point x="-184" y="-434"/>
      <point x="-162" y="-408"/>
      <point x="-162" y="-367" type="curve" smooth="yes"/>
      <point x="-162" y="-297"/>
      <point x="-214" y="-268"/>
      <point x="-264" y="-268" type="curve" smooth="yes"/>
      <point x="-325" y="-268"/>
      <point x="-370" y="-305"/>
      <point x="-370" y="-377" type="curve" smooth="yes"/>
      <point x="-370" y="-441"/>
      <point x="-306" y="-520"/>
    </contour>
    <contour>
      <point x="375" y="-420" type="curve" smooth="yes"/>
      <point x="654" y="-420"/>
      <point x="753.644" y="-171.558"/>
      <point x="817" y="76" type="curve" smooth="yes"/>
      <point x="1033" y="920" type="line"/>
      <point x="130" y="920" type="line"/>
      <point x="130" y="847" type="line"/>
      <point x="850" y="847" type="line"/>
      <point x="648" y="20" type="line" smooth="yes"/>
      <point x="589.628" y="-218.978"/>
      <point x="535" y="-347"/>
      <point x="375" y="-347" type="curve" smooth="yes"/>
      <point x="344" y="-347"/>
      <point x="285" y="-339"/>
      <point x="252" y="-316" type="curve"/>
      <point x="253" y="-316"/>
      <point x="254" y="-316"/>
      <point x="255" y="-316" type="curve" smooth="yes"/>
      <point x="314" y="-316"/>
      <point x="355" y="-271"/>
      <point x="355" y="-206" type="curve" smooth="yes"/>
      <point x="355" y="-126"/>
      <point x="294" y="-98"/>
      <point x="244" y="-98" type="curve" smooth="yes"/>
      <point x="183" y="-98"/>
      <point x="130" y="-141"/>
      <point x="130" y="-223" type="curve" smooth="yes"/>
      <point x="130" y="-307"/>
      <point x="193" y="-420"/>
    </contour>
  </outline>
</glyph>
<glyph name="i.sc" format="2">
  <advance width="720"/>
  <anchor x="141" y="0" name="bottom"/>
  <anchor x="141" y="0" name="cedilla"/>
  <anchor x="380" y="1020" name="top"/>
  <outline>
    <contour>
      <point x="46" y="0" type="line"/>
      <point x="235" y="0" type="line"/>
      <point x="470" y="1020" type="line"/>
      <point x="281" y="1020" type="line"/>
    </contour>
    <contour>
      <point x="-125" y="0" type="line"/>
      <point x="425" y="0" type="line"/>
      <point x="442" y="73" type="line"/>
      <point x="-108" y="73" type="line"/>
    </contour>
    <contour>
      <point x="94" y="947" type="line"/>
      <point x="644" y="947" type="line"/>
      <point x="660" y="1020" type="line"/>
      <point x="110" y="1020" type="line"/>
    </contour>
  </outline>
</glyph>
<glyph name="nine.osf" format="2">
  <advance width="1119"/>
  <outline>
    <contour>
      <point x="-30" y="-519.961" type="line"/>
      <point x="536" y="-519.961"/>
      <point x="1000" y="101.012"/>
      <point x="1000" y="504.881" type="curve" smooth="yes"/>
      <point x="1000" y="808.257"/>
      <point x="835" y="940.036"/>
      <point x="612" y="940.036" type="curve" smooth="yes"/>
      <point x="310" y="940.036"/>
      <point x="20" y="636.66"/>
      <point x="20" y="352.245" type="curve" smooth="yes"/>
      <point x="20" y="87.739"/>
      <point x="176" y="-8.014"/>
      <point x="338" y="-8.014" type="curve" smooth="yes"/>
      <point x="680" y="-8.014"/>
      <point x="862" y="376.894"/>
      <point x="862" y="598.738" type="curve"/>
      <point x="800" y="598.738" type="line"/>
      <point x="800" y="389.219"/>
      <point x="628" y="78.259"/>
      <point x="382" y="78.259" type="curve" smooth="yes"/>
      <point x="278" y="78.259"/>
      <point x="220" y="155.051"/>
      <point x="220" y="352.245" type="curve" smooth="yes"/>
      <point x="220" y="587.361"/>
      <point x="388" y="870.828"/>
      <point x="606" y="870.828" type="curve" smooth="yes"/>
      <point x="729" y="870.828"/>
      <point x="800" y="776.971"/>
      <point x="800" y="598.738" type="curve"/>
      <point x="789" y="428.089" type="line"/>
      <point x="789" y="101.96"/>
      <point x="438" y="-456.442"/>
      <point x="-30" y="-456.442" type="curve"/>
    </contour>
  </outline>
</glyph>
<glyph name="s.sc" format="2">
  <advance width="1012"/>
  <anchor x="318" y="0" name="bottom"/>
  <anchor x="584" y="1020" name="top"/>
  <outline>
    <contour>
      <point x="346" y="-29" type="curve" smooth="yes"/>
      <point x="548" y="-29"/>
      <point x="721" y="80"/>
      <point x="769" y="290" type="curve" smooth="yes"/>
      <point x="854" y="660"/>
      <point x="259" y="610"/>
      <point x="310" y="830" type="curve" smooth="yes"/>
      <point x="326" y="899"/>
      <point x="397" y="961"/>
      <point x="528" y="961" type="curve" smooth="yes"/>
      <point x="666" y="961"/>
      <point x="739" y="852"/>
      <point x="751" y="729" type="curve"/>
      <point x="823" y="729" type="line"/>
      <point x="822" y="897"/>
      <point x="713" y="1040"/>
      <point x="527" y="1040" type="curve" smooth="yes"/>
      <point x="341" y="1040"/>
      <point x="189" y="941"/>
      <point x="150" y="770" type="curve" smooth="yes"/>
      <point x="65" y="400"/>
      <point x="669" y="480"/>
      <point x="609" y="220" type="curve" smooth="yes"/>
      <point x="584" y="111"/>
      <point x="496" y="47"/>
      <point x="334" y="47" type="curve" smooth="yes"/>
      <point x="141" y="47"/>
      <point x="83" y="223"/>
      <point x="66" y="321" type="curve"/>
      <point x="-6" y="321" type="line"/>
      <point x="10" y="181"/>
      <point x="99" y="-29"/>
    </contour>
    <contour>
      <point x="-85" y="-20" type="line"/>
      <point x="-23" y="-20" type="line"/>
      <point x="83" y="118" type="line"/>
      <point x="57" y="203"/>
      <point x="31" y="228"/>
      <point x="-6" y="321" type="curve"/>
    </contour>
    <contour>
      <point x="823" y="729" type="curve"/>
      <point x="895" y="1040" type="line"/>
      <point x="833" y="1040" type="line"/>
      <point x="723" y="910" type="line"/>
      <point x="757" y="814"/>
      <point x="800" y="806"/>
    </contour>
  </outline>
</glyph>
<glyph name="three.tosf" format="2">
  <advance width="1160"/>
  <outline>
    <contour>
      <point x="342" y="-519.96" type="curve" smooth="yes"/>
      <point x="624" y="-519.96"/>
      <point x="882" y="-358.803"/>
      <point x="882" y="-83.889" type="curve" smooth="yes"/>
      <point x="882" y="125.615"/>
      <point x="788" y="276.344"/>
      <point x="356" y="276.344" type="curve"/>
      <point x="356" y="233.685" type="line"/>
      <point x="644" y="233.685"/>
      <point x="680" y="56.412"/>
      <point x="680" y="-83.889" type="curve" smooth="yes"/>
      <point x="680" y="-290.548"/>
      <point x="540" y="-454.549"/>
      <point x="302" y="-454.549" type="curve" smooth="yes"/>
      <point x="126" y="-454.549"/>
      <point x="5" y="-360.699"/>
      <point x="5" y="-246.941" type="curve"/>
      <point x="-68" y="-246.941" type="line"/>
      <point x="-68" y="-294.34"/>
      <point x="-14" y="-330.364"/>
      <point x="44" y="-330.364" type="curve" smooth="yes"/>
      <point x="103" y="-330.364"/>
      <point x="157" y="-291.496"/>
      <point x="157" y="-230.826" type="curve" smooth="yes"/>
      <point x="157" y="-162.571"/>
      <point x="111" y="-125.6"/>
      <point x="50" y="-125.6" type="curve" smooth="yes"/>
      <point x="-20" y="-125.6"/>
      <point x="-70" y="-169.207"/>
      <point x="-70" y="-246.941" type="curve" smooth="yes"/>
      <point x="-70" y="-384.398"/>
      <point x="58" y="-519.96"/>
    </contour>
    <contour>
      <point x="356" y="259.28" type="line"/>
      <point x="818" y="259.28"/>
      <point x="982" y="477.315"/>
      <point x="982" y="666.911" type="curve" smooth="yes"/>
      <point x="982" y="876.415"/>
      <point x="805" y="938.034"/>
      <point x="582" y="938.034" type="curve" smooth="yes"/>
      <point x="378" y="938.034"/>
      <point x="209" y="816.692"/>
      <point x="209" y="679.235" type="curve" smooth="yes"/>
      <point x="209" y="601.501"/>
      <point x="264" y="561.686"/>
      <point x="325" y="561.686" type="curve" smooth="yes"/>
      <point x="375" y="561.686"/>
      <point x="438" y="591.073"/>
      <point x="438" y="666.911" type="curve" smooth="yes"/>
      <point x="438" y="733.27"/>
      <point x="384" y="767.397"/>
      <point x="325" y="767.397" type="curve" smooth="yes"/>
      <point x="274" y="767.397"/>
      <point x="211" y="736.114"/>
      <point x="211" y="679.235" type="curve"/>
      <point x="284" y="679.235" type="line"/>
      <point x="284" y="802.473"/>
      <point x="419" y="871.675"/>
      <point x="552" y="871.675" type="curve" smooth="yes"/>
      <point x="710" y="871.675"/>
      <point x="780" y="788.253"/>
      <point x="780" y="666.911" type="curve" smooth="yes"/>
      <point x="780" y="545.57"/>
      <point x="674" y="301.939"/>
      <point x="356" y="301.939" type="curve"/>
    </contour>
  </outline>
</glyph>
<glyph name="v.sc" format="2">
  <advance width="1198"/>
  <anchor x="394" y="0" name="bottom"/>
  <anchor x="612" y="0" name="cedilla"/>
  <anchor x="735" y="1020" name="top"/>
  <outline>
    <contour>
      <point x="342" y="-29" type="line"/>
      <point x="409" y="-29" type="line"/>
      <point x="1126" y="1020" type="line"/>
      <point x="1042" y="1020" type="line"/>
      <point x="500" y="213" type="line"/>
      <point x="336" y="1020" type="line"/>
      <point x="116" y="1020" type="line"/>
    </contour>
    <contour>
      <point x="9" y="947" type="line"/>
      <point x="509" y="947" type="line"/>
      <point x="525" y="1020" type="line"/>
      <point x="25" y="1020" type="line"/>
    </contour>
    <contour>
      <point x="850" y="947" type="line"/>
      <point x="1207" y="947" type="line"/>
      <point x="1223" y="1020" type="line"/>
      <point x="866" y="1020" type="line"/>
    </contour>
  </outline>
</glyph>
